<?xml version="1.0" encoding="UTF-8"?>
<svg xmlns="http://www.w3.org/2000/svg" xmlns:xlink="http://www.w3.org/1999/xlink" width="29pt" height="29pt" viewBox="0 0 29 29" version="1.1">
<g id="surface1">
<path style=" stroke:none;fill-rule:evenodd;fill:rgb(40.392157%,40.392157%,40.392157%);fill-opacity:1;" d="M 5.9375 4.101562 L 24.441406 22.777344 C 24.816406 23.15625 24.8125 23.765625 24.4375 24.140625 L 23.664062 24.902344 C 23.285156 25.277344 22.675781 25.277344 22.300781 24.898438 L 3.796875 6.222656 C 3.421875 5.847656 3.421875 5.234375 3.800781 4.859375 L 4.570312 4.097656 C 4.949219 3.722656 5.5625 3.722656 5.9375 4.101562 Z M 5.9375 4.101562 "/>
<path style=" stroke:none;fill-rule:evenodd;fill:rgb(40.392157%,40.392157%,40.392157%);fill-opacity:1;" d="M 24.515625 6.316406 L 5.84375 24.824219 C 5.464844 25.199219 4.851562 25.195312 4.476562 24.816406 L 3.714844 24.046875 C 3.339844 23.667969 3.34375 23.058594 3.71875 22.683594 L 22.394531 4.175781 C 22.773438 3.800781 23.382812 3.804688 23.757812 4.183594 L 24.523438 4.953125 C 24.898438 5.332031 24.894531 5.941406 24.515625 6.316406 Z M 24.515625 6.316406 "/>
</g>
</svg>
