<?xml version="1.0" encoding="UTF-8"?>
<svg xmlns="http://www.w3.org/2000/svg" xmlns:xlink="http://www.w3.org/1999/xlink" width="29pt" height="29pt" viewBox="0 0 29 29" version="1.1">
<g id="surface1">
<path style="fill:none;stroke-width:2.496924;stroke-linecap:butt;stroke-linejoin:miter;stroke:rgb(40.392157%,40.392157%,40.392157%);stroke-opacity:1;stroke-miterlimit:4;" d="M 15.750001 1038.819954 C 15.750001 1034.858208 12.50485 1031.643769 8.502156 1031.643769 C 4.494343 1031.643769 1.249193 1034.858208 1.249193 1038.819954 C 1.249193 1042.7817 4.494343 1045.991021 8.502156 1045.991021 C 12.50485 1045.991021 15.750001 1042.7817 15.750001 1038.819954 Z M 15.750001 1038.819954 " transform="matrix(0.763158,0,0,0.763158,6.105263,-780.619587)"/>
<path style="fill:none;stroke-width:1.747451;stroke-linecap:butt;stroke-linejoin:miter;stroke:rgb(40.392157%,40.392157%,40.392157%);stroke-opacity:1;stroke-miterlimit:4;" d="M 742.37991 682.48573 L 751.515174 682.486068 C 751.536946 682.484697 751.554914 682.501663 751.554704 682.523394 C 751.554493 682.545124 751.539837 682.560525 751.518065 682.561896 L 742.379138 682.565408 C 742.361029 682.562928 742.343061 682.545962 742.343271 682.524232 C 742.343482 682.502501 742.358138 682.4871 742.37991 682.48573 Z M 742.37991 682.48573 " transform="matrix(0.504589,0.572538,-0.534385,0.544833,6.105263,-780.619587)"/>
<path style="fill:none;stroke-width:1.763067;stroke-linecap:butt;stroke-linejoin:miter;stroke:rgb(40.392157%,40.392157%,40.392157%);stroke-opacity:1;stroke-miterlimit:4;" d="M 689.364874 -835.888829 L 698.584662 -835.886124 C 698.606368 -835.889417 698.622559 -835.870089 698.624281 -835.848566 C 698.626002 -835.827043 698.605444 -835.809401 698.587069 -835.810244 L 689.36395 -835.808814 C 689.345575 -835.809657 689.326053 -835.824848 689.324332 -835.846372 C 689.325941 -835.872031 689.343168 -835.885536 689.364874 -835.888829 Z M 689.364874 -835.888829 " transform="matrix(0.61504,0.451814,0.495284,-0.580607,6.105263,-780.619587)"/>
<path style="fill-rule:evenodd;fill:rgb(40.392157%,40.392157%,40.392157%);fill-opacity:1;stroke-width:0.590149;stroke-linecap:butt;stroke-linejoin:miter;stroke:rgb(40.392157%,40.392157%,40.392157%);stroke-opacity:1;stroke-miterlimit:4;" d="M 233.886228 1030.549736 C 233.889008 1029.603161 233.127915 1028.836417 232.191145 1028.833184 C 231.255411 1028.83499 230.498445 1029.604216 230.500678 1030.549886 C 230.497897 1031.496461 231.25899 1032.263205 232.190747 1032.267344 C 233.12648 1032.265537 233.888461 1031.495405 233.886228 1030.549736 Z M 233.886228 1030.549736 " transform="matrix(0.751117,0.135028,-0.154609,0.747333,6.105263,-780.619587)"/>
</g>
</svg>
