<?xml version="1.0" encoding="UTF-8"?>
<svg xmlns="http://www.w3.org/2000/svg" xmlns:xlink="http://www.w3.org/1999/xlink" width="29pt" height="29pt" viewBox="0 0 29 29" version="1.1">
<g id="surface1">
<path style="fill:none;stroke-width:1.616629;stroke-linecap:butt;stroke-linejoin:miter;stroke:rgb(40.392157%,40.392157%,40.392157%);stroke-opacity:1;stroke-miterlimit:4;" d="M -1052.682531 380.386761 C -1052.683745 383.264448 -1054.137068 385.681181 -1056.074387 386.020898 C -1058.006536 386.35881 -1059.807491 384.508516 -1060.262499 381.712418 C -1060.717506 378.916319 -1059.687251 376.062462 -1057.858242 375.067102 C -1056.029232 374.071742 -1053.98433 375.252136 -1053.102132 377.816354 " transform="matrix(0.263425,-0.716252,0.754841,0.112364,5.765305,-780.380394)"/>
<path style="fill:none;stroke-width:1.713236;stroke-linecap:butt;stroke-linejoin:miter;stroke:rgb(40.392157%,40.392157%,40.392157%);stroke-opacity:1;stroke-miterlimit:4;" d="M 10.805646 1031.386647 L 12.177413 1031.386647 C 12.25931 1031.386647 12.325851 1031.453188 12.325851 1031.535085 L 12.325851 1043.957768 C 12.325851 1044.039665 12.25931 1044.106206 12.177413 1044.106206 L 10.805646 1044.106206 C 10.718631 1044.106206 10.65209 1044.039665 10.65209 1043.957768 L 10.65209 1031.535085 C 10.65209 1031.453188 10.718631 1031.386647 10.805646 1031.386647 Z M 10.805646 1031.386647 " transform="matrix(0.763158,0,0,0.763158,5.765305,-780.380394)"/>
<path style="fill:none;stroke-width:2.089021;stroke-linecap:butt;stroke-linejoin:miter;stroke:rgb(40.392157%,40.392157%,40.392157%);stroke-opacity:1;stroke-miterlimit:4;" d="M 9.822887 1032.517844 L 10.380807 1032.517844 C 10.483178 1032.517844 10.559956 1032.59974 10.559956 1032.702111 L 10.559956 1036.796938 C 10.559956 1036.894191 10.483178 1036.976087 10.380807 1036.976087 L 9.822887 1036.976087 C 9.720517 1036.976087 9.63862 1036.894191 9.63862 1036.796938 L 9.63862 1032.702111 C 9.63862 1032.59974 9.720517 1032.517844 9.822887 1032.517844 Z M 9.822887 1032.517844 " transform="matrix(0.763158,0,0,0.763158,5.765305,-780.380394)"/>
<path style="fill:none;stroke-width:1.415303;stroke-linecap:butt;stroke-linejoin:miter;stroke:rgb(40.392157%,40.392157%,40.392157%);stroke-opacity:1;stroke-miterlimit:4;" d="M 9.479945 1033.045053 C 9.479945 1033.004104 9.177952 1032.973393 8.809417 1032.973393 C 8.435764 1032.973393 8.133771 1033.004104 8.133771 1033.045053 C 8.133771 1033.080882 8.435764 1033.116712 8.809417 1033.116712 C 9.177952 1033.116712 9.479945 1033.080882 9.479945 1033.045053 Z M 9.479945 1033.045053 " transform="matrix(0.763158,0,0,0.763158,5.765305,-780.380394)"/>
<path style="fill:none;stroke-width:1.31669;stroke-linecap:butt;stroke-linejoin:miter;stroke:rgb(40.392157%,40.392157%,40.392157%);stroke-opacity:1;stroke-miterlimit:4;" d="M 9.433879 1034.713695 C 9.433879 1034.682984 9.111411 1034.657391 8.712165 1034.657391 C 8.31292 1034.657391 7.990452 1034.682984 7.990452 1034.713695 C 7.990452 1034.749525 8.31292 1034.775117 8.712165 1034.775117 C 9.111411 1034.775117 9.433879 1034.749525 9.433879 1034.713695 Z M 9.433879 1034.713695 " transform="matrix(0.763158,0,0,0.763158,5.765305,-780.380394)"/>
<path style="fill:none;stroke-width:1.463025;stroke-linecap:butt;stroke-linejoin:miter;stroke:rgb(40.392157%,40.392157%,40.392157%);stroke-opacity:1;stroke-miterlimit:4;" d="M 9.485064 1036.387456 C 9.485064 1036.346507 9.198426 1036.310678 8.840129 1036.310678 C 8.481831 1036.310678 8.190075 1036.346507 8.190075 1036.387456 C 8.190075 1036.433522 8.481831 1036.469352 8.840129 1036.469352 C 9.198426 1036.469352 9.485064 1036.433522 9.485064 1036.387456 Z M 9.485064 1036.387456 " transform="matrix(0.763158,0,0,0.763158,5.765305,-780.380394)"/>
</g>
</svg>
