<?xml version="1.0" encoding="UTF-8"?>
<svg xmlns="http://www.w3.org/2000/svg" xmlns:xlink="http://www.w3.org/1999/xlink" width="29pt" height="29pt" viewBox="0 0 29 29" version="1.1">
<g id="surface1">
<path style="fill:none;stroke-width:0.433018;stroke-linecap:butt;stroke-linejoin:miter;stroke:rgb(40.392157%,40.392157%,40.392157%);stroke-opacity:1;stroke-miterlimit:4;" d="M -14.639009 3.816379 C -14.626724 3.816379 -14.618534 3.91875 -14.618534 4.04569 L -14.618534 25.551724 C -14.618534 25.678664 -14.626724 25.785129 -14.639009 25.785129 C -14.651293 25.785129 -14.663578 25.678664 -14.663578 25.551724 L -14.663578 4.04569 C -14.663578 3.91875 -14.651293 3.816379 -14.639009 3.816379 Z M -14.639009 3.816379 " transform="matrix(-0.953947,0,0,0.953947,0,0)"/>
<path style="fill:none;stroke-width:0.38939;stroke-linecap:butt;stroke-linejoin:miter;stroke:rgb(40.392157%,40.392157%,40.392157%);stroke-opacity:1;stroke-miterlimit:4;" d="M 0.235278 20.464361 C 0.259152 20.464736 0.280226 20.509314 0.281528 20.560606 L 0.282668 29.578012 C 0.280427 29.631355 0.259348 29.676677 0.235474 29.676302 C 0.211601 29.675928 0.190527 29.631349 0.189225 29.580058 L 0.191628 20.5606 C 0.190326 20.509309 0.211404 20.463987 0.235278 20.464361 Z M 0.235278 20.464361 " transform="matrix(-0.8256,0.477913,0.477913,0.8256,0,0)"/>
<path style="fill:none;stroke-width:0.389403;stroke-linecap:butt;stroke-linejoin:miter;stroke:rgb(40.392157%,40.392157%,40.392157%);stroke-opacity:1;stroke-miterlimit:4;" d="M 25.570742 5.799309 C 25.594616 5.799684 25.615691 5.844263 25.613451 5.897606 L 25.614849 14.915012 C 25.612609 14.968355 25.595076 15.011625 25.571202 15.01125 C 25.543784 15.012926 25.522709 14.968347 25.524949 14.915005 L 25.523551 5.897598 C 25.525791 5.844255 25.543324 5.800986 25.570742 5.799309 Z M 25.570742 5.799309 " transform="matrix(0.825613,0.477889,-0.477937,0.825586,0,0)"/>
</g>
</svg>
