<?xml version="1.0" encoding="UTF-8"?>
<svg xmlns="http://www.w3.org/2000/svg" xmlns:xlink="http://www.w3.org/1999/xlink" width="29pt" height="29pt" viewBox="0 0 29 29" version="1.1">
<g id="surface1">
<path style="fill-rule:evenodd;fill:rgb(40.392157%,40.392157%,40.392157%);fill-opacity:1;stroke-width:0.521603;stroke-linecap:butt;stroke-linejoin:miter;stroke:rgb(40.392157%,40.392157%,40.392157%);stroke-opacity:1;stroke-miterlimit:4;" d="M 9.7375 14.798707 C 9.7375 16.424353 8.42306 17.738793 6.801509 17.738793 C 5.175862 17.738793 3.861422 16.424353 3.861422 14.798707 C 3.861422 13.177155 5.175862 11.862716 6.801509 11.862716 C 8.42306 11.862716 9.7375 13.177155 9.7375 14.798707 Z M 9.7375 14.798707 " transform="matrix(0.953947,0,0,0.953947,0,0)"/>
<path style="fill-rule:evenodd;fill:rgb(40.392157%,40.392157%,40.392157%);fill-opacity:1;stroke-width:0.521603;stroke-linecap:butt;stroke-linejoin:miter;stroke:rgb(40.392157%,40.392157%,40.392157%);stroke-opacity:1;stroke-miterlimit:4;" d="M 25.338793 14.798707 C 25.338793 16.424353 24.024353 17.738793 22.398707 17.738793 C 20.777155 17.738793 19.462716 16.424353 19.462716 14.798707 C 19.462716 13.177155 20.777155 11.862716 22.398707 11.862716 C 24.024353 11.862716 25.338793 13.177155 25.338793 14.798707 Z M 25.338793 14.798707 " transform="matrix(0.953947,0,0,0.953947,0,0)"/>
<path style="fill-rule:evenodd;fill:rgb(40.392157%,40.392157%,40.392157%);fill-opacity:1;stroke-width:0.521603;stroke-linecap:butt;stroke-linejoin:miter;stroke:rgb(40.392157%,40.392157%,40.392157%);stroke-opacity:1;stroke-miterlimit:4;" d="M 17.3375 14.798707 C 17.3375 16.424353 16.02306 17.738793 14.401509 17.738793 C 12.775862 17.738793 11.461422 16.424353 11.461422 14.798707 C 11.461422 13.177155 12.775862 11.862716 14.401509 11.862716 C 16.02306 11.862716 17.3375 13.177155 17.3375 14.798707 Z M 17.3375 14.798707 " transform="matrix(0.953947,0,0,0.953947,0,0)"/>
</g>
</svg>
