<?xml version="1.0" encoding="UTF-8"?>
<svg xmlns="http://www.w3.org/2000/svg" xmlns:xlink="http://www.w3.org/1999/xlink" width="29pt" height="29pt" viewBox="0 0 29 29" version="1.1">
<g id="surface1">
<path style=" stroke:none;fill-rule:evenodd;fill:rgb(40.392157%,40.392157%,40.392157%);fill-opacity:1;" d="M 4.164062 13.359375 L 24.074219 13.359375 C 24.476562 13.359375 24.800781 13.6875 24.800781 14.089844 L 24.800781 14.910156 C 24.800781 15.3125 24.476562 15.640625 24.074219 15.640625 L 4.164062 15.640625 C 3.761719 15.640625 3.433594 15.3125 3.433594 14.910156 L 3.433594 14.089844 C 3.433594 13.6875 3.761719 13.359375 4.164062 13.359375 Z M 4.164062 13.359375 "/>
<path style=" stroke:none;fill-rule:evenodd;fill:rgb(40.392157%,40.392157%,40.392157%);fill-opacity:1;" d="M 15.257812 4.546875 L 15.257812 24.453125 C 15.257812 24.855469 14.933594 25.183594 14.53125 25.183594 L 13.707031 25.183594 C 13.304688 25.183594 12.976562 24.855469 12.976562 24.453125 L 12.976562 4.546875 C 12.976562 4.144531 13.304688 3.816406 13.707031 3.816406 L 14.53125 3.816406 C 14.933594 3.816406 15.257812 4.144531 15.257812 4.546875 Z M 15.257812 4.546875 "/>
</g>
</svg>
