<?xml version="1.0" encoding="UTF-8"?>
<svg xmlns="http://www.w3.org/2000/svg" xmlns:xlink="http://www.w3.org/1999/xlink" width="29pt" height="29pt" viewBox="0 0 29 29" version="1.1">
<g id="surface1">
<path style=" stroke:none;fill-rule:evenodd;fill:rgb(40.392157%,40.392157%,40.392157%);fill-opacity:1;" d="M 21.539062 12.527344 L 3.878906 12.527344 C 3.335938 12.527344 2.898438 12.933594 2.898438 13.433594 L 2.898438 14.449219 C 2.898438 14.949219 3.335938 15.355469 3.878906 15.355469 L 21.539062 15.355469 C 22.078125 15.355469 22.515625 14.949219 22.515625 14.449219 L 22.515625 13.433594 C 22.515625 12.933594 22.078125 12.527344 21.539062 12.527344 Z M 21.539062 12.527344 "/>
<path style=" stroke:none;fill-rule:evenodd;fill:rgb(40.392157%,40.392157%,40.392157%);fill-opacity:1;" d="M 25.71875 13.148438 L 13.960938 4.175781 C 13.550781 3.863281 12.941406 3.914062 12.601562 4.289062 L 11.90625 5.054688 C 11.5625 5.429688 11.617188 5.988281 12.027344 6.300781 L 23.785156 15.273438 C 24.195312 15.585938 24.804688 15.535156 25.144531 15.160156 L 25.839844 14.394531 C 26.183594 14.015625 26.128906 13.460938 25.71875 13.148438 Z M 25.71875 13.148438 "/>
<path style=" stroke:none;fill-rule:evenodd;fill:rgb(40.392157%,40.392157%,40.392157%);fill-opacity:1;" d="M 25.71875 14.78125 L 13.960938 23.753906 C 13.550781 24.066406 12.941406 24.015625 12.601562 23.640625 L 11.902344 22.875 C 11.5625 22.496094 11.617188 21.941406 12.027344 21.628906 L 23.785156 12.65625 C 24.195312 12.34375 24.804688 12.394531 25.144531 12.769531 L 25.839844 13.535156 C 26.183594 13.910156 26.128906 14.46875 25.71875 14.78125 Z M 25.71875 14.78125 "/>
</g>
</svg>
