<?xml version="1.0" encoding="UTF-8"?>
<svg xmlns="http://www.w3.org/2000/svg" xmlns:xlink="http://www.w3.org/1999/xlink" width="29pt" height="29pt" viewBox="0 0 29 29" version="1.1">
<g id="surface1">
<path style=" stroke:none;fill-rule:evenodd;fill:rgb(40.392157%,40.392157%,40.392157%);fill-opacity:1;" d="M 7.097656 12.527344 L 24.757812 12.527344 C 25.300781 12.527344 25.738281 12.933594 25.738281 13.433594 L 25.738281 14.449219 C 25.738281 14.949219 25.300781 15.355469 24.757812 15.355469 L 7.097656 15.355469 C 6.558594 15.355469 6.121094 14.949219 6.121094 14.449219 L 6.121094 13.433594 C 6.121094 12.933594 6.558594 12.527344 7.097656 12.527344 Z M 7.097656 12.527344 "/>
<path style=" stroke:none;fill-rule:evenodd;fill:rgb(40.392157%,40.392157%,40.392157%);fill-opacity:1;" d="M 2.917969 13.148438 L 14.675781 4.175781 C 15.085938 3.863281 15.695312 3.914062 16.035156 4.289062 L 16.730469 5.054688 C 17.074219 5.429688 17.019531 5.988281 16.609375 6.300781 L 4.851562 15.273438 C 4.441406 15.585938 3.832031 15.535156 3.492188 15.160156 L 2.796875 14.394531 C 2.453125 14.015625 2.507812 13.460938 2.917969 13.148438 Z M 2.917969 13.148438 "/>
<path style=" stroke:none;fill-rule:evenodd;fill:rgb(40.392157%,40.392157%,40.392157%);fill-opacity:1;" d="M 2.917969 14.78125 L 14.675781 23.753906 C 15.085938 24.066406 15.695312 24.015625 16.035156 23.640625 L 16.734375 22.875 C 17.074219 22.496094 17.019531 21.941406 16.609375 21.628906 L 4.851562 12.65625 C 4.441406 12.34375 3.832031 12.394531 3.492188 12.769531 L 2.796875 13.535156 C 2.453125 13.910156 2.507812 14.46875 2.917969 14.78125 Z M 2.917969 14.78125 "/>
</g>
</svg>
