<?xml version="1.0" encoding="UTF-8"?>
<svg xmlns="http://www.w3.org/2000/svg" xmlns:xlink="http://www.w3.org/1999/xlink" width="29pt" height="29pt" viewBox="0 0 29 29" version="1.1">
<g id="surface1">
<path style="fill:none;stroke-width:1.6;stroke-linecap:butt;stroke-linejoin:miter;stroke:rgb(40.392157%,40.392157%,40.392157%);stroke-opacity:1;stroke-miterlimit:4;" d="M 23.391214 24.407195 L 25.032112 21.870033 L 9.895781 23.654231 L 12.820153 24.434477 L 6.44069 10.591938 L 6.603155 13.609251 L 17.802415 3.269633 L 14.980938 4.35543 L 28.275998 11.808685 L 26.369741 9.457035 Z M 23.391214 24.407195 " transform="matrix(0.721309,0,0,0.71592,2.033961,4.15139)"/>
<path style="fill:none;stroke-width:1.6;stroke-linecap:butt;stroke-linejoin:miter;stroke:rgb(40.392157%,40.392157%,40.392157%);stroke-opacity:1;stroke-miterlimit:4;" d="M 23.389809 24.410001 L 25.03415 21.873058 L 9.898485 23.655028 L 12.820567 24.43629 L 6.44327 10.593672 L 6.606149 13.609369 L 17.801494 3.270003 L 14.979405 4.356226 L 28.271743 11.805574 L 26.372182 9.460421 Z M 23.389809 24.410001 " transform="matrix(0.571061,0.429043,-0.425911,0.575259,10.898874,-1.10854)"/>
<path style="fill:none;stroke-width:1.654944;stroke-linecap:butt;stroke-linejoin:miter;stroke:rgb(40.392157%,40.392157%,40.392157%);stroke-opacity:1;stroke-miterlimit:4;" d="M 21.334052 15.441595 C 21.334052 12.010129 18.549569 9.225647 15.118103 9.225647 C 11.690733 9.225647 8.90625 12.010129 8.90625 15.441595 C 8.90625 18.87306 11.690733 21.653448 15.118103 21.653448 C 18.549569 21.653448 21.334052 18.87306 21.334052 15.441595 Z M 21.334052 15.441595 " transform="matrix(0.953947,0,0,0.953947,0,0)"/>
<path style="fill:none;stroke-width:0.752247;stroke-linecap:butt;stroke-linejoin:miter;stroke:rgb(40.392157%,40.392157%,40.392157%);stroke-opacity:1;stroke-miterlimit:4;" d="M 17.865733 15.359698 C 17.865733 13.799569 16.600431 12.534267 15.040302 12.534267 C 13.480172 12.534267 12.214871 13.799569 12.214871 15.359698 C 12.214871 16.919828 13.480172 18.185129 15.040302 18.185129 C 16.600431 18.185129 17.865733 16.919828 17.865733 15.359698 Z M 17.865733 15.359698 " transform="matrix(0.953947,0,0,0.953947,0,0)"/>
<path style="fill:none;stroke-width:0.948013;stroke-linecap:butt;stroke-linejoin:miter;stroke:rgb(40.392157%,40.392157%,40.392157%);stroke-opacity:1;stroke-miterlimit:4;" d="M 24.631614 -0.29014 L 27.507597 -0.288853 L 27.509371 -0.0832607 L 24.633388 -0.0845481 Z M 24.631614 -0.29014 " transform="matrix(0.659051,0.689686,-0.689686,0.659051,0,0)"/>
</g>
</svg>
