<?xml version="1.0" encoding="UTF-8"?>
<svg xmlns="http://www.w3.org/2000/svg" xmlns:xlink="http://www.w3.org/1999/xlink" width="29pt" height="29pt" viewBox="0 0 29 29" version="1.1">
<g id="surface1">
<path style="fill:none;stroke-width:1.434409;stroke-linecap:butt;stroke-linejoin:miter;stroke:rgb(40.392157%,40.392157%,40.392157%);stroke-opacity:1;stroke-miterlimit:4;" d="M 23.28319 14.798707 C 23.28319 19.262069 19.663362 22.881897 15.2 22.881897 C 10.736638 22.881897 7.11681 19.262069 7.11681 14.798707 C 7.11681 10.335345 10.736638 6.715517 15.2 6.715517 C 19.663362 6.715517 23.28319 10.335345 23.28319 14.798707 Z M 23.28319 14.798707 " transform="matrix(0.953947,0,0,0.953947,0,0)"/>
<path style="fill:none;stroke-width:0.8;stroke-linecap:butt;stroke-linejoin:miter;stroke:rgb(40.392157%,40.392157%,40.392157%);stroke-opacity:1;stroke-miterlimit:4;" d="M 10.003664 8.807974 L 11.891379 10.020043 L 13.328664 9.393534 L 13.824138 10.335345 " transform="matrix(0.953947,0,0,0.953947,0,0)"/>
<path style="fill-rule:evenodd;fill:rgb(40.392157%,40.392157%,40.392157%);fill-opacity:1;stroke-width:0.611122;stroke-linecap:butt;stroke-linejoin:miter;stroke:rgb(40.392157%,40.392157%,40.392157%);stroke-opacity:1;stroke-miterlimit:4;" d="M 13.226293 10.662931 L 12.026509 11.621121 L 10.925 13.066595 L 10.171552 12.620259 L 9.553233 12.960129 L 9.860345 13.578448 L 10.478664 13.512931 L 11.064224 14.540733 L 11.920043 14.196767 L 13.295905 14.85194 L 14.634914 16.154095 L 14.016595 17.697845 L 12.677586 19.48319 L 12.849569 20.375862 L 11.920043 19.999138 L 11.51056 17.149138 L 10.6875 16.223707 L 10.822629 14.917457 L 9.553233 14.024784 L 8.55819 13.820043 L 8.316595 11.899569 " transform="matrix(0.953947,0,0,0.953947,0,0)"/>
<path style="fill-rule:evenodd;fill:rgb(40.392157%,40.392157%,40.392157%);fill-opacity:1;stroke-width:0.76246;stroke-linecap:butt;stroke-linejoin:miter;stroke:rgb(40.392157%,40.392157%,40.392157%);stroke-opacity:1;stroke-miterlimit:4;" d="M 18.815733 8.292026 L 18.328448 9.872629 L 18.963147 10.110129 L 18.529095 10.839009 L 18.725647 11.27306 L 19.880388 10.585129 L 20.875431 10.863578 L 21.821336 9.700647 " transform="matrix(0.953947,0,0,0.953947,0,0)"/>
<path style="fill-rule:evenodd;fill:rgb(40.392157%,40.392157%,40.392157%);fill-opacity:1;stroke-width:0.684802;stroke-linecap:butt;stroke-linejoin:miter;stroke:rgb(40.392157%,40.392157%,40.392157%);stroke-opacity:1;stroke-miterlimit:4;" d="M 22.20625 18.778879 L 20.437284 19.122845 L 19.859914 18.045905 L 19.475 15.855172 L 17.628233 15.048491 L 17.165517 13.738147 L 18.013147 12.583405 L 19.24569 12.390948 L 19.896767 13.123922 L 21.935991 12.624353 L 23.127586 14.856034 L 22.939224 17.280172 Z M 22.20625 18.778879 " transform="matrix(0.953947,0,0,0.953947,0,0)"/>
<path style="fill-rule:evenodd;fill:rgb(40.392157%,40.392157%,40.392157%);fill-opacity:1;stroke-width:0.787082;stroke-linecap:butt;stroke-linejoin:miter;stroke:rgb(40.392157%,40.392157%,40.392157%);stroke-opacity:1;stroke-miterlimit:4;" d="M 10.544181 9.50819 L 8.926724 10.79806 L 7.997198 13.18125 L 9.467241 13.586638 L 14.082112 10.003664 " transform="matrix(0.953947,0,0,0.953947,0,0)"/>
<path style="fill-rule:evenodd;fill:rgb(40.392157%,40.392157%,40.392157%);fill-opacity:1;stroke-width:0.621182;stroke-linecap:butt;stroke-linejoin:miter;stroke:rgb(40.392157%,40.392157%,40.392157%);stroke-opacity:1;stroke-miterlimit:4;" d="M 15.638147 7.051293 L 15.109914 8.533621 L 15.568534 8.951293 L 16.698707 9.282974 L 17.157328 7.497629 Z M 15.638147 7.051293 " transform="matrix(0.953947,0,0,0.953947,0,0)"/>
</g>
</svg>
