<?xml version="1.0" encoding="UTF-8"?>
<svg xmlns="http://www.w3.org/2000/svg" xmlns:xlink="http://www.w3.org/1999/xlink" width="29pt" height="29pt" viewBox="0 0 29 29" version="1.1">
<g id="surface1">
<path style=" stroke:none;fill-rule:evenodd;fill:rgb(40.392157%,40.392157%,40.392157%);fill-opacity:1;" d="M 5.1875 10.972656 L 5.1875 24.824219 C 5.1875 25.058594 5.546875 25.246094 5.996094 25.246094 L 6.90625 25.246094 C 7.351562 25.246094 7.714844 25.058594 7.714844 24.824219 L 7.714844 10.972656 C 7.714844 10.742188 7.351562 10.554688 6.90625 10.554688 L 5.996094 10.554688 C 5.546875 10.554688 5.1875 10.742188 5.1875 10.972656 Z M 5.1875 10.972656 "/>
<path style=" stroke:none;fill-rule:evenodd;fill:rgb(40.392157%,40.392157%,40.392157%);fill-opacity:1;" d="M 13.195312 4.753906 L 1.71875 11.957031 C 1.320312 12.207031 1.382812 12.582031 1.867188 12.789062 L 2.84375 13.21875 C 3.328125 13.425781 4.039062 13.390625 4.441406 13.140625 L 15.917969 5.9375 C 16.316406 5.6875 16.25 5.3125 15.769531 5.101562 L 14.789062 4.675781 C 14.308594 4.46875 13.59375 4.5 13.195312 4.753906 Z M 13.195312 4.753906 "/>
<path style=" stroke:none;fill-rule:evenodd;fill:rgb(40.392157%,40.392157%,40.392157%);fill-opacity:1;" d="M 15.285156 4.753906 L 26.761719 11.957031 C 27.164062 12.207031 27.097656 12.582031 26.617188 12.789062 L 25.636719 13.21875 C 25.15625 13.425781 24.441406 13.394531 24.042969 13.140625 L 12.566406 5.9375 C 12.164062 5.6875 12.230469 5.3125 12.710938 5.101562 L 13.691406 4.675781 C 14.171875 4.46875 14.886719 4.5 15.285156 4.753906 Z M 15.285156 4.753906 "/>
<path style=" stroke:none;fill-rule:evenodd;fill:rgb(40.392157%,40.392157%,40.392157%);fill-opacity:1;" d="M 20.828125 10.867188 L 20.828125 24.71875 C 20.828125 24.949219 21.191406 25.136719 21.636719 25.136719 L 22.546875 25.136719 C 22.996094 25.136719 23.359375 24.949219 23.359375 24.71875 L 23.359375 10.867188 C 23.359375 10.636719 22.996094 10.449219 22.546875 10.449219 L 21.636719 10.449219 C 21.191406 10.449219 20.828125 10.636719 20.828125 10.867188 Z M 20.828125 10.867188 "/>
<path style=" stroke:none;fill-rule:evenodd;fill:rgb(40.392157%,40.392157%,40.392157%);fill-opacity:1;" d="M 5.683594 25.203125 L 11.824219 25.203125 L 11.824219 22.976562 L 5.683594 22.976562 Z M 5.683594 25.203125 "/>
<path style=" stroke:none;fill-rule:evenodd;fill:rgb(40.392157%,40.392157%,40.392157%);fill-opacity:1;" d="M 12.242188 18.457031 L 16.136719 18.457031 C 16.894531 18.457031 17.511719 18.136719 17.511719 17.742188 L 17.511719 16.941406 C 17.511719 16.550781 16.894531 16.230469 16.136719 16.230469 L 12.242188 16.230469 C 11.480469 16.230469 10.867188 16.550781 10.867188 16.941406 L 10.867188 17.742188 C 10.867188 18.136719 11.480469 18.457031 12.242188 18.457031 Z M 12.242188 18.457031 "/>
<path style=" stroke:none;fill-rule:evenodd;fill:rgb(40.392157%,40.392157%,40.392157%);fill-opacity:1;" d="M 16.355469 25.121094 L 22.496094 25.121094 L 22.496094 22.898438 L 16.355469 22.898438 Z M 16.355469 25.121094 "/>
<path style=" stroke:none;fill-rule:evenodd;fill:rgb(40.392157%,40.392157%,40.392157%);fill-opacity:1;" d="M 13.363281 25.191406 L 13.363281 17.21875 L 10.835938 17.21875 L 10.835938 25.191406 Z M 13.363281 25.191406 "/>
<path style=" stroke:none;fill-rule:evenodd;fill:rgb(40.392157%,40.392157%,40.392157%);fill-opacity:1;" d="M 17.492188 25.105469 L 17.492188 17.132812 L 14.960938 17.132812 L 14.960938 25.105469 Z M 17.492188 25.105469 "/>
<path style=" stroke:none;fill-rule:evenodd;fill:rgb(40.392157%,40.392157%,40.392157%);fill-opacity:1;" d="M 22.339844 9.355469 L 22.339844 4.0625 L 18.175781 4.0625 L 18.175781 9.355469 Z M 22.339844 9.355469 "/>
</g>
</svg>
