<?xml version="1.0" encoding="UTF-8"?>
<svg xmlns="http://www.w3.org/2000/svg" xmlns:xlink="http://www.w3.org/1999/xlink" width="29pt" height="29pt" viewBox="0 0 29 29" version="1.1">
<g id="surface1">
<path style="fill:none;stroke-width:2.363262;stroke-linecap:butt;stroke-linejoin:miter;stroke:rgb(40.392157%,40.392157%,40.392157%);stroke-opacity:1;stroke-miterlimit:4;" d="M -3.075075 16.743288 C -3.07562 21.55743 -6.432343 25.716997 -11.133685 26.733926 C -15.835027 27.750855 -20.608693 25.353351 -22.600137 20.974359 C -24.591581 16.595366 -23.258222 11.420602 -19.397774 8.54562 C -15.536891 5.674709 -10.198171 5.88279 -6.574087 9.045511 " transform="matrix(0.101318,-0.948552,0.948552,0.101319,0,0)"/>
<path style="fill:none;stroke-width:1.989694;stroke-linecap:butt;stroke-linejoin:miter;stroke:rgb(40.392157%,40.392157%,40.392157%);stroke-opacity:1;stroke-miterlimit:4;" d="M 5.593804 6.381226 L 11.233017 6.381718 C 11.315138 6.382879 11.380221 6.44632 11.378622 6.525492 L 11.379301 7.209071 C 11.381809 7.288301 11.316278 7.354065 11.234157 7.352904 L 5.590838 7.352354 C 5.512823 7.351251 5.44774 7.28781 5.445233 7.20858 L 5.444553 6.525001 C 5.446152 6.445829 5.511683 6.380066 5.593804 6.381226 Z M 5.593804 6.381226 " transform="matrix(0.953855,-0.013243,-0.178095,0.937176,0,0)"/>
<path style="fill:none;stroke-width:1.972815;stroke-linecap:butt;stroke-linejoin:miter;stroke:rgb(40.392157%,40.392157%,40.392157%);stroke-opacity:1;stroke-miterlimit:4;" d="M -11.570426 -10.177574 L -5.669624 -10.177732 C -5.591779 -10.178276 -5.530899 -10.117101 -5.532409 -10.043171 L -5.532156 -9.398429 C -5.529569 -9.324528 -5.591602 -9.262494 -5.669447 -9.261951 L -11.570248 -9.261793 C -11.643996 -9.261277 -11.708974 -9.322423 -11.707152 -9.400462 L -11.707717 -10.041095 C -11.705895 -10.119134 -11.643862 -10.181168 -11.570426 -10.177574 Z M -11.570426 -10.177574 " transform="matrix(-0.00664535,-0.953924,-0.951201,-0.0723284,0,0)"/>
</g>
</svg>
